<?xml version="1.0" encoding="UTF-8" standalone="no"?>
<!DOCTYPE svg PUBLIC "-//W3C//DTD SVG 1.1//EN" "http://www.w3.org/Graphics/SVG/1.1/DTD/svg11.dtd">
<svg width="100%" height="100%" viewBox="0 0 423 173" version="1.1" xmlns="http://www.w3.org/2000/svg" xmlns:xlink="http://www.w3.org/1999/xlink" xml:space="preserve" xmlns:serif="http://www.serif.com/" style="fill-rule:evenodd;clip-rule:evenodd;stroke-linejoin:round;stroke-miterlimit:2;">
    <rect id="Tabs" x="0" y="0" width="422.917" height="172.917" style="fill:none;"/>
    <clipPath id="_clip1">
        <rect x="0" y="0" width="422.917" height="172.917"/>
    </clipPath>
    <g clip-path="url(#_clip1)">
        <g id="Game">
            <path d="M172.925,157.705l0,15.22l-138.347,0c0,-19.089 -15.498,-34.587 -34.587,-34.587l0,-138.347l172.934,-0l0,15.22l178.753,0l71.247,71.247l-71.247,71.247l-178.753,-0Z"/>
            <clipPath id="_clip2">
                <rect x="44.101" y="38.497" width="84.715" height="95.923"/>
            </clipPath>
            <g clip-path="url(#_clip2)">
                <g id="g849">
                    <g>
                        <path id="path6" d="M128.598,105.643l0,-44.764l-38.67,-22.382l0,17.186l15.149,8.793c0.598,0.4 0.598,1.199 0,1.399l-17.94,10.392c-0.598,0.4 -1.196,0.2 -1.595,0l-17.94,-10.392c-0.598,-0.2 -0.598,-1.199 0,-1.399l15.149,-8.793l0,-17.186l-38.869,22.382l0,44.764l0,-0.2l0,0.2l14.75,-8.593l0,-17.586c0,-0.6 0.797,-0.999 1.196,-0.799l17.94,10.392c0.598,0.4 0.797,0.799 0.797,1.399l0,20.783c0,0.6 -0.797,0.999 -1.196,0.799l-15.149,-8.793l-14.75,8.593l38.67,22.582l38.67,-22.382l-14.75,-8.593l-15.149,8.793c-0.598,0.4 -1.196,0 -1.196,-0.799l0,-20.783c0,-0.6 0.399,-1.199 0.797,-1.399l17.94,-10.392c0.598,-0.4 1.196,0 1.196,0.799l0,17.586l14.95,8.393Z" fill="black"/>
                        <path id="path8" d="M86.141,134.42l38.67,-22.382l-14.75,-8.593l-15.149,8.793c-0.598,0.4 -1.196,0 -1.196,-0.799l0,-20.783c0,-0.6 0.399,-1.199 0.797,-1.399l17.94,-10.392c0.598,-0.4 1.196,0 1.196,0.799l0,17.586l14.75,8.593l0,-44.964l-42.258,24.58l0,48.961Z" fill="black"/>
                        <path id="path10" d="M89.928,38.497l0,17.186l15.149,8.793c0.598,0.4 0.598,1.199 0,1.399l-17.94,10.392c-0.598,0.4 -1.196,0.2 -1.595,0l-17.94,-10.392c-0.598,-0.2 -0.598,-1.199 0,-1.399l15.149,-8.793l0,-17.186l-38.869,22.382l42.258,24.58l42.258,-24.58l-38.47,-22.382Z" fill="black"/>
                        <path id="path12" d="M77.57,112.238l-15.149,-8.793l-14.75,8.593l38.67,22.382l0,-48.961l-42.457,-24.58l0,44.764l0,-0.2l0,0.2l14.75,-8.593l0,-17.586c0,-0.6 0.797,-0.999 1.196,-0.799l17.94,10.392c0.598,0.4 0.797,0.799 0.797,1.399l0,20.783c0.199,0.799 -0.399,1.399 -0.997,0.999Z" fill="black"/>
                    </g>
                </g>
            </g>
            <path d="M216.191,84.501l20.544,0l-4.134,19.699c-2.422,1.566 -5.392,2.892 -8.91,3.977c-3.518,1.086 -7.104,1.628 -10.757,1.628c-5.679,0 -10.032,-1.284 -13.059,-3.852c-4.134,-3.508 -6.201,-8.591 -6.201,-15.252c0,-4.468 0.887,-8.748 2.662,-12.84c2.13,-4.927 5.157,-8.748 9.082,-11.462c3.925,-2.714 8.539,-4.071 13.842,-4.071c5.303,0 9.557,1.232 12.762,3.695c3.205,2.464 5.329,6.055 6.373,10.773l-8.8,1.002c-0.772,-2.589 -2.02,-4.541 -3.742,-5.856c-1.722,-1.315 -3.889,-1.973 -6.498,-1.973c-3.048,0 -5.846,0.793 -8.393,2.38c-2.547,1.587 -4.541,4.04 -5.982,7.36c-1.441,3.32 -2.161,6.942 -2.161,10.867c0,3.862 0.877,6.718 2.631,8.565c1.754,1.848 4.322,2.772 7.704,2.772c2.025,0 4.103,-0.287 6.232,-0.861c2.13,-0.574 3.967,-1.258 5.512,-2.051l1.409,-6.827l-11.713,0l1.597,-7.673Z" fill="black"/>
            <path d="M253.146,85.19l-8.769,-0.752c1.002,-2.965 2.751,-5.282 5.246,-6.952c2.495,-1.67 5.799,-2.505 9.912,-2.505c4.28,0 7.443,0.861 9.489,2.584c2.046,1.722 3.069,3.826 3.069,6.31c0,1.002 -0.089,2.067 -0.266,3.194c-0.177,1.127 -0.799,4.092 -1.863,8.894c-0.877,3.967 -1.315,6.744 -1.315,8.33c0,1.42 0.251,2.996 0.752,4.729l-8.738,0c-0.355,-1.211 -0.574,-2.464 -0.658,-3.758c-1.315,1.461 -2.829,2.584 -4.541,3.367c-1.712,0.783 -3.434,1.174 -5.167,1.174c-2.756,0 -5.032,-0.903 -6.827,-2.709c-1.796,-1.806 -2.693,-4.129 -2.693,-6.968c0,-3.173 0.986,-5.71 2.959,-7.61c1.973,-1.9 5.496,-3.048 10.57,-3.445c4.28,-0.355 7.14,-0.783 8.581,-1.284c0.376,-1.253 0.564,-2.255 0.564,-3.006c0,-0.96 -0.386,-1.764 -1.159,-2.411c-0.772,-0.647 -1.921,-0.971 -3.445,-0.971c-1.608,0 -2.876,0.329 -3.805,0.986c-0.929,0.658 -1.561,1.592 -1.895,2.803Zm8.55,8.33c-0.543,0.146 -1.263,0.282 -2.161,0.407c-4.51,0.543 -7.454,1.336 -8.831,2.38c-0.981,0.752 -1.472,1.764 -1.472,3.038c0,1.044 0.376,1.926 1.127,2.646c0.752,0.72 1.743,1.08 2.975,1.08c1.357,0 2.636,-0.329 3.836,-0.986c1.2,-0.658 2.098,-1.503 2.693,-2.537c0.595,-1.033 1.122,-2.646 1.582,-4.839l0.251,-1.19Z" fill="black"/>
            <path d="M282.803,75.763l8.456,0l-0.846,4.04c3.299,-3.215 6.765,-4.823 10.397,-4.823c2.505,0 4.437,0.522 5.794,1.566c1.357,1.044 2.224,2.485 2.599,4.322c1.148,-1.67 2.798,-3.069 4.948,-4.197c2.15,-1.127 4.384,-1.691 6.702,-1.691c2.652,0 4.718,0.71 6.201,2.13c1.482,1.42 2.224,3.299 2.224,5.637c0,1.148 -0.292,3.132 -0.877,5.95l-4.259,20.325l-8.988,0l4.259,-20.325c0.522,-2.547 0.783,-3.988 0.783,-4.322c0,-0.919 -0.277,-1.644 -0.83,-2.177c-0.553,-0.532 -1.383,-0.799 -2.49,-0.799c-2.234,0 -4.228,1.18 -5.982,3.539c-1.274,1.691 -2.359,4.687 -3.257,8.988l-3.163,15.095l-8.988,0l4.197,-20.106c0.48,-2.317 0.72,-3.821 0.72,-4.51c0,-0.877 -0.298,-1.597 -0.893,-2.161c-0.595,-0.564 -1.414,-0.846 -2.458,-0.846c-0.981,0 -1.994,0.292 -3.038,0.877c-1.044,0.585 -1.957,1.388 -2.74,2.411c-0.783,1.023 -1.456,2.338 -2.02,3.946c-0.251,0.752 -0.658,2.453 -1.221,5.105l-3.194,15.283l-8.988,0l6.952,-33.259Z" fill="black"/>
            <path d="M365.543,95.18l-22.548,0c-0.021,0.355 -0.031,0.626 -0.031,0.814c0,2.213 0.632,3.998 1.895,5.355c1.263,1.357 2.803,2.036 4.619,2.036c2.986,0 5.313,-1.545 6.984,-4.635l8.049,1.347c-1.566,3.236 -3.659,5.663 -6.279,7.281c-2.62,1.618 -5.559,2.427 -8.816,2.427c-4.468,0 -8.101,-1.414 -10.898,-4.243c-2.798,-2.829 -4.197,-6.571 -4.197,-11.227c0,-4.551 1.263,-8.602 3.789,-12.151c3.445,-4.802 8.362,-7.203 14.75,-7.203c4.071,0 7.307,1.258 9.708,3.774c2.401,2.516 3.601,6.039 3.601,10.57c0,2.171 -0.209,4.123 -0.626,5.856Zm-7.579,-5.481c0.021,-0.397 0.031,-0.699 0.031,-0.908c0,-2.464 -0.553,-4.311 -1.66,-5.543c-1.107,-1.232 -2.589,-1.848 -4.447,-1.848c-1.858,0 -3.523,0.699 -4.995,2.098c-1.472,1.399 -2.469,3.466 -2.991,6.201l14.061,0Z" fill="black"/>
        </g>
    </g>
</svg>
