<?xml version="1.0" encoding="UTF-8" standalone="no"?>
<!DOCTYPE svg PUBLIC "-//W3C//DTD SVG 1.1//EN" "http://www.w3.org/Graphics/SVG/1.1/DTD/svg11.dtd">
<svg width="100%" height="100%" viewBox="0 0 423 173" version="1.1" xmlns="http://www.w3.org/2000/svg" xmlns:xlink="http://www.w3.org/1999/xlink" xml:space="preserve" xmlns:serif="http://www.serif.com/" style="fill-rule:evenodd;clip-rule:evenodd;stroke-linejoin:round;stroke-miterlimit:2;">
    <rect id="Tabs" x="0" y="0" width="422.917" height="172.917" style="fill:none;"/>
    <clipPath id="_clip1">
        <rect x="0" y="0" width="422.917" height="172.917"/>
    </clipPath>
    <g clip-path="url(#_clip1)">
        <g id="Contact">
            <path d="M172.925,157.705l0,15.22l-138.347,0c0,-19.089 -15.498,-34.587 -34.587,-34.587l0,-138.347l172.934,0l0,15.22l178.753,0l71.247,71.247l-71.247,71.247l-178.753,0Z"/>
            <path d="M116.486,139.679l-60.055,0c-3.043,-5.271 -4.645,-11.25 -4.645,-17.336c0,-19.136 15.536,-34.673 34.673,-34.673c19.136,0 34.673,15.536 34.673,34.673c0,6.086 -1.602,12.065 -4.645,17.336Zm-8.706,-6.721c2.161,-3.743 3.298,-7.988 3.298,-12.31c0,-13.588 -11.032,-24.62 -24.62,-24.62c-13.588,0 -24.62,11.032 -24.62,24.62c0,4.322 1.138,8.567 3.298,12.31l42.642,-0Zm-21.321,-99.721c13.707,0 24.836,11.129 24.836,24.836c0,13.707 -11.129,24.836 -24.836,24.836c-13.707,0 -24.836,-11.129 -24.836,-24.836c0,-13.707 11.129,-24.836 24.836,-24.836Zm0,8.459c-9.039,0 -16.377,7.338 -16.377,16.377c0,9.039 7.338,16.377 16.377,16.377c9.039,0 16.377,-7.338 16.377,-16.377c0,-9.039 -7.338,-16.377 -16.377,-16.377Z" fill="black"/>
            <path d="M213.404,92.487l9.52,1.441c-1.858,5.157 -4.645,9.098 -8.362,11.822c-3.716,2.725 -8.069,4.087 -13.059,4.087c-5.616,0 -10.006,-1.691 -13.169,-5.073c-3.163,-3.382 -4.745,-8.289 -4.745,-14.719c0,-5.22 1.06,-9.995 3.179,-14.328c2.119,-4.332 5.058,-7.647 8.816,-9.943c3.758,-2.297 7.85,-3.445 12.276,-3.445c4.969,0 8.988,1.331 12.057,3.993c3.069,2.662 4.875,6.29 5.418,10.883l-9.051,0.877c-0.501,-2.672 -1.467,-4.609 -2.897,-5.809c-1.43,-1.2 -3.335,-1.801 -5.715,-1.801c-2.61,0 -5.047,0.793 -7.313,2.38c-2.265,1.587 -4.076,4.066 -5.434,7.438c-1.357,3.372 -2.036,6.738 -2.036,10.1c0,3.675 0.882,6.514 2.646,8.518c1.764,2.004 3.962,3.006 6.592,3.006c2.443,0 4.682,-0.793 6.718,-2.38c2.036,-1.587 3.555,-3.936 4.557,-7.046Z" fill="black"/>
            <path d="M228.468,100.348l8.894,0l-1.816,8.675l-8.894,0l1.816,-8.675Z" style="fill-rule:nonzero;" fill="black"/>
            <path d="M261.695,109.022l9.614,-45.911l9.427,0l-9.583,45.911l-9.458,0Z" style="fill-rule:nonzero;" fill="black"/>
            <path d="M286.937,75.763l8.518,0l-0.877,4.322c2.13,-1.837 4.118,-3.147 5.966,-3.93c1.848,-0.783 3.795,-1.174 5.841,-1.174c2.735,0 4.891,0.783 6.467,2.349c1.576,1.566 2.364,3.643 2.364,6.232c0,1.169 -0.344,3.382 -1.033,6.639l-3.915,18.822l-8.988,0l3.946,-18.884c0.585,-2.819 0.877,-4.499 0.877,-5.042c0,-1.148 -0.339,-2.051 -1.018,-2.709c-0.679,-0.658 -1.623,-0.986 -2.834,-0.986c-1.315,0 -2.777,0.553 -4.384,1.66c-1.608,1.107 -2.871,2.568 -3.789,4.384c-0.668,1.294 -1.42,3.936 -2.255,7.923l-2.85,13.654l-8.988,0l6.952,-33.259Z" fill="black"/>
            <path d="M342.212,75.763l-1.378,6.577l-6.357,0l-5.574,26.682l-8.988,0l5.574,-26.682l-5.011,0l1.378,-6.577l5.011,0l0.72,-3.414c0.585,-2.798 1.138,-4.687 1.66,-5.668c0.71,-1.336 1.769,-2.396 3.179,-3.179c1.409,-0.783 3.252,-1.174 5.527,-1.174c2.756,0 5.658,0.501 8.706,1.503l-1.754,6.42c-2.15,-0.731 -3.894,-1.096 -5.23,-1.096c-1.023,0 -1.785,0.324 -2.286,0.971c-0.334,0.418 -0.679,1.514 -1.033,3.288l-0.501,2.349l6.357,0Z" fill="black"/>
            <path d="M341.711,95.212c0,-6.159 1.738,-11.071 5.214,-14.735c3.476,-3.664 8.043,-5.496 13.701,-5.496c4.906,0 8.738,1.352 11.493,4.056c2.756,2.704 4.134,6.342 4.134,10.914c0,5.387 -1.722,10.042 -5.167,13.968c-3.445,3.925 -8.059,5.888 -13.842,5.888c-3.132,0 -5.909,-0.626 -8.33,-1.879c-2.422,-1.253 -4.228,-3.027 -5.418,-5.324c-1.19,-2.297 -1.785,-4.76 -1.785,-7.391Zm25.618,-6.42c0,-2.13 -0.621,-3.836 -1.863,-5.12c-1.242,-1.284 -2.845,-1.926 -4.807,-1.926c-1.942,0 -3.664,0.6 -5.167,1.801c-1.503,1.2 -2.672,2.944 -3.508,5.23c-0.835,2.286 -1.253,4.39 -1.253,6.31c0,2.38 0.647,4.27 1.942,5.668c1.294,1.399 2.923,2.098 4.885,2.098c2.464,0 4.531,-1.054 6.201,-3.163c2.38,-2.986 3.57,-6.618 3.57,-10.898Z" fill="black"/>
        </g>
    </g>
</svg>
