<?xml version="1.0" encoding="UTF-8" standalone="no"?>
<!DOCTYPE svg PUBLIC "-//W3C//DTD SVG 1.1//EN" "http://www.w3.org/Graphics/SVG/1.1/DTD/svg11.dtd">
<svg width="100%" height="100%" viewBox="0 0 423 173" version="1.1" xmlns="http://www.w3.org/2000/svg" xmlns:xlink="http://www.w3.org/1999/xlink" xml:space="preserve" xmlns:serif="http://www.serif.com/" style="fill-rule:evenodd;clip-rule:evenodd;stroke-linejoin:round;stroke-miterlimit:2;">
    <rect id="Tabs" x="0" y="0" width="422.917" height="172.917" style="fill:none;"/>
    <clipPath id="_clip1">
        <rect x="0" y="0" width="422.917" height="172.917"/>
    </clipPath>
    <g clip-path="url(#_clip1)">
        <g id="Code">
            <path d="M172.925,157.705l0,15.22l-138.347,0c0,-19.089 -15.498,-34.587 -34.587,-34.587l0,-138.347l172.934,-0l0,15.22l178.753,0l71.247,71.247l-71.247,71.247l-178.753,-0Z"/>
            <path d="M43.31,87.844c2.278,1.806 5.085,4.604 8.421,8.393c3.946,4.45 6.651,7.358 8.115,8.723c1.464,1.366 2.197,2.864 2.197,4.494c0,1.63 -0.549,3.062 -1.648,4.296c-1.098,1.234 -2.38,1.85 -3.844,1.85c-1.139,0 -2.278,-0.463 -3.417,-1.388c-1.627,-1.278 -5.105,-4.934 -10.434,-10.97c-4.068,-4.626 -7.993,-7.732 -11.777,-9.318c-3.092,-1.234 -4.637,-3.062 -4.637,-5.485c0,-2.203 1.403,-4.031 4.21,-5.485c3.783,-1.983 7.932,-5.551 12.448,-10.706c6.305,-7.137 10.058,-11.246 11.258,-12.325c1.2,-1.079 2.41,-1.619 3.631,-1.619c1.464,0 2.756,0.606 3.875,1.817c1.119,1.212 1.678,2.632 1.678,4.263c0,1.498 -0.61,2.908 -1.831,4.23c-3.905,4.494 -9.987,10.904 -18.245,19.231Zm28.923,33.544c-1.003,0 -1.885,-0.339 -2.644,-1.017c-0.759,-0.678 -1.139,-1.519 -1.139,-2.522c0,-0.434 0.095,-0.895 0.285,-1.383c2.115,-5.831 6.102,-14.231 11.96,-25.201c5.858,-10.97 9.858,-19.384 12,-25.241c3.553,-9.709 6.237,-14.522 8.054,-14.441c1.003,0.027 1.885,0.386 2.644,1.078c0.759,0.692 1.139,1.525 1.139,2.502c0,0.624 -0.149,1.37 -0.447,2.237l-4.556,11.065c-1.817,5.017 -4.407,10.807 -7.77,17.37l-8.868,16.841l-7.363,16.312c-0.732,1.6 -1.831,2.4 -3.295,2.4Zm74.398,-34.894c0,1.464 -0.672,2.909 -2.017,4.332c-8.652,8.99 -17.721,16.882 -27.209,23.675c-1.018,0.732 -1.981,1.098 -2.89,1.098c-1.309,0 -2.445,-0.58 -3.408,-1.739c-0.963,-1.159 -1.445,-2.471 -1.445,-3.936c0,-1.627 0.709,-3.051 2.127,-4.271l21.156,-18.062c-3.235,-2.4 -7.234,-6.082 -11.996,-11.044c-5.816,-6.143 -8.724,-10.394 -8.724,-12.753c0,-1.464 0.509,-2.746 1.527,-3.844c1.018,-1.098 2.181,-1.648 3.49,-1.648c1.345,0 2.563,0.692 3.653,2.075c8.288,10.373 15.795,17.512 22.52,21.418c2.145,1.22 3.217,2.787 3.217,4.698Z" fill="black"/>
            <path d="M231.818,92.487l9.52,1.441c-1.858,5.157 -4.645,9.098 -8.362,11.822c-3.716,2.725 -8.069,4.087 -13.059,4.087c-5.616,0 -10.006,-1.691 -13.169,-5.073c-3.163,-3.382 -4.745,-8.289 -4.745,-14.719c0,-5.22 1.06,-9.995 3.179,-14.328c2.119,-4.332 5.058,-7.647 8.816,-9.943c3.758,-2.297 7.85,-3.445 12.276,-3.445c4.969,0 8.988,1.331 12.057,3.993c3.069,2.662 4.875,6.29 5.418,10.883l-9.051,0.877c-0.501,-2.672 -1.467,-4.609 -2.897,-5.809c-1.43,-1.2 -3.335,-1.801 -5.715,-1.801c-2.61,0 -5.047,0.793 -7.313,2.38c-2.265,1.587 -4.076,4.066 -5.434,7.438c-1.357,3.372 -2.036,6.738 -2.036,10.1c0,3.675 0.882,6.514 2.646,8.518c1.764,2.004 3.962,3.006 6.592,3.006c2.443,0 4.682,-0.793 6.718,-2.38c2.036,-1.587 3.555,-3.936 4.557,-7.046Z" style="fill-rule:nonzero;" fill="black"/>
            <path d="M246.13,95.212c0,-6.159 1.738,-11.071 5.214,-14.735c3.476,-3.664 8.043,-5.496 13.701,-5.496c4.906,0 8.738,1.352 11.493,4.056c2.756,2.704 4.134,6.342 4.134,10.914c0,5.387 -1.722,10.042 -5.167,13.968c-3.445,3.925 -8.059,5.888 -13.842,5.888c-3.132,0 -5.909,-0.626 -8.33,-1.879c-2.422,-1.253 -4.228,-3.027 -5.418,-5.324c-1.19,-2.297 -1.785,-4.76 -1.785,-7.391Zm25.618,-6.42c0,-2.13 -0.621,-3.836 -1.863,-5.12c-1.242,-1.284 -2.845,-1.926 -4.807,-1.926c-1.942,0 -3.664,0.6 -5.167,1.801c-1.503,1.2 -2.672,2.944 -3.508,5.23c-0.835,2.286 -1.253,4.39 -1.253,6.31c0,2.38 0.647,4.27 1.942,5.668c1.294,1.399 2.923,2.098 4.885,2.098c2.464,0 4.531,-1.054 6.201,-3.163c2.38,-2.986 3.57,-6.618 3.57,-10.898Z" style="fill-rule:nonzero;" fill="black"/>
            <path d="M314.715,109.022l-8.518,0l0.752,-3.601c-1.628,1.566 -3.231,2.688 -4.807,3.367c-1.576,0.679 -3.356,1.018 -5.34,1.018c-3.445,0 -6.237,-1.174 -8.377,-3.523c-2.14,-2.349 -3.21,-5.82 -3.21,-10.413c0,-5.324 1.503,-10.136 4.51,-14.437c3.006,-4.301 6.984,-6.451 11.932,-6.451c4.468,0 7.819,1.775 10.053,5.324l3.601,-17.193l8.988,0l-9.583,45.911Zm-20.763,-13.529c0,2.38 0.6,4.238 1.801,5.574c1.2,1.336 2.678,2.004 4.431,2.004c1.628,0 3.147,-0.558 4.557,-1.675c1.409,-1.117 2.537,-2.824 3.382,-5.12c0.846,-2.297 1.268,-4.499 1.268,-6.608c0,-2.401 -0.647,-4.343 -1.942,-5.825c-1.294,-1.482 -2.787,-2.224 -4.478,-2.224c-2.631,0 -4.792,1.461 -6.483,4.384c-1.691,2.923 -2.537,6.086 -2.537,9.489Z" style="fill-rule:nonzero;" fill="black"/>
            <path d="M355.553,95.18l-22.548,0c-0.021,0.355 -0.031,0.626 -0.031,0.814c0,2.213 0.632,3.998 1.895,5.355c1.263,1.357 2.803,2.036 4.619,2.036c2.986,0 5.313,-1.545 6.984,-4.635l8.049,1.347c-1.566,3.236 -3.659,5.663 -6.279,7.281c-2.62,1.618 -5.559,2.427 -8.816,2.427c-4.468,0 -8.101,-1.414 -10.898,-4.243c-2.798,-2.829 -4.197,-6.571 -4.197,-11.227c0,-4.551 1.263,-8.602 3.789,-12.151c3.445,-4.802 8.362,-7.203 14.75,-7.203c4.071,0 7.307,1.258 9.708,3.774c2.401,2.516 3.601,6.039 3.601,10.57c0,2.171 -0.209,4.123 -0.626,5.856Zm-7.579,-5.481c0.021,-0.397 0.031,-0.699 0.031,-0.908c0,-2.464 -0.553,-4.311 -1.66,-5.543c-1.107,-1.232 -2.589,-1.848 -4.447,-1.848c-1.858,0 -3.523,0.699 -4.995,2.098c-1.472,1.399 -2.469,3.466 -2.991,6.201l14.061,0Z" fill="black"/>
        </g>
    </g>
</svg>
