<?xml version="1.0" encoding="UTF-8" standalone="no"?>
<!DOCTYPE svg PUBLIC "-//W3C//DTD SVG 1.1//EN" "http://www.w3.org/Graphics/SVG/1.1/DTD/svg11.dtd">
<svg width="100%" height="100%" viewBox="0 0 423 173" version="1.1" xmlns="http://www.w3.org/2000/svg" xmlns:xlink="http://www.w3.org/1999/xlink" xml:space="preserve" xmlns:serif="http://www.serif.com/" style="fill-rule:evenodd;clip-rule:evenodd;stroke-linejoin:round;stroke-miterlimit:2;">
    <rect id="Tabs" x="0" y="0" width="422.917" height="172.917" style="fill:none;"/>
    <clipPath id="_clip1">
        <rect x="0" y="0" width="422.917" height="172.917"/>
    </clipPath>
    <g clip-path="url(#_clip1)">
        <g id="Design">
            <path d="M172.925,157.705l0,15.22l-138.347,0c0,-19.089 -15.498,-34.587 -34.587,-34.587l0,-138.347l172.934,-0l0,15.22l178.753,0l71.247,71.247l-71.247,71.247l-178.753,0Z"/>
            <g>
                <g>
                    <path d="M75.679,112.618c-30.542,44.45 -28.721,37.807 -11.641,-5.93c1.055,1.293 2.443,2.56 4.207,3.578c2.384,1.377 5.076,2.08 7.434,2.351Zm-10.148,-9.749c0.146,-0.372 0.292,-0.747 0.44,-1.124c0.969,-2.475 9.621,-17.159 11.504,-19.566c2.108,-2.696 4.697,-6.184 8.976,-12.09c4.076,-5.628 6.077,-8.27 6.205,-8.217c0.053,0.021 0.342,0.332 0.642,0.685c1.391,1.68 3.916,3.178 6.002,3.584c0.385,0.064 0.706,0.139 0.728,0.15c0.096,0.075 -1.466,3.573 -4.29,9.629c-3.359,7.211 -5.416,11.38 -7.063,15.317c-3.048,7.284 -9.713,16.592 -9.731,16.619c-0.429,0.627 -0.852,1.246 -1.269,1.856c-5.094,-1.004 -9.087,-3.344 -12.142,-6.842Z" fill="black"/>
                    <path d="M105.479,64.037c2.316,-1.032 4.102,-3.057 5.083,-5.757c0.357,-0.973 0.663,-2.801 0.662,-3.886c-0.011,-3.726 0.067,-5.237 0.389,-7.156c0.305,-1.794 0.785,-3.246 1.513,-4.658c1.366,-2.638 3.302,-4.469 6.59,-6.202c0.832,-0.45 1.117,-0.649 1.194,-0.843c0.155,-0.388 0.49,-0.919 -0.335,-1.094c-0.825,-0.175 -4.61,0.874 -4.61,0.874c-2.36,0.604 -5.001,1.307 -5.848,1.573c-9.873,3.033 -15.153,6.402 -17.452,11.104c-1.131,2.308 -1.38,4.539 -0.814,7.322c0.611,3.014 1.842,5.168 4.032,7.083c1.508,1.32 3.777,2.252 5.717,2.351c1.217,0.051 2.819,-0.23 3.88,-0.712Z" fill="black"/>
                </g>
            </g>
            <path d="M263.981,98.876l-18.195,0l-5.512,10.147l-9.708,0l25.962,-45.911l10.491,0l7.454,45.911l-8.957,0l-1.535,-10.147Zm-1.159,-7.641l-2.662,-18.477l-11.086,18.477l13.748,0Z" fill="black"/>
            <path d="M286.624,75.763l8.393,0l-1.347,6.451c3.132,-4.823 6.524,-7.234 10.178,-7.234c1.294,0 2.683,0.324 4.165,0.971l-3.445,7.36c-0.814,-0.292 -1.681,-0.438 -2.599,-0.438c-1.545,0 -3.116,0.585 -4.713,1.754c-1.597,1.169 -2.845,2.73 -3.742,4.682c-0.898,1.952 -1.785,5.047 -2.662,9.286l-2.192,10.429l-8.988,0l6.952,-33.259Z" fill="black"/>
            <path d="M307.387,82.434l1.378,-6.671l4.384,0l1.096,-5.324l10.303,-6.201l-2.411,11.525l5.481,0l-1.378,6.671l-5.512,0l-2.913,13.936c-0.522,2.526 -0.783,3.967 -0.783,4.322c0,0.689 0.219,1.227 0.658,1.613c0.438,0.386 1.232,0.579 2.38,0.579c0.397,0 1.388,-0.073 2.975,-0.219l-1.409,6.671c-1.545,0.313 -3.132,0.47 -4.76,0.47c-3.173,0 -5.481,-0.611 -6.921,-1.832c-1.441,-1.221 -2.161,-2.918 -2.161,-5.089c0,-1.023 0.386,-3.382 1.159,-7.078l2.787,-13.372l-4.353,0Z" fill="black"/>
        </g>
    </g>
</svg>
