<?xml version="1.0" encoding="UTF-8" standalone="no"?>
<!DOCTYPE svg PUBLIC "-//W3C//DTD SVG 1.1//EN" "http://www.w3.org/Graphics/SVG/1.1/DTD/svg11.dtd">
<svg width="100%" height="100%" viewBox="0 0 423 173" version="1.1" xmlns="http://www.w3.org/2000/svg" xmlns:xlink="http://www.w3.org/1999/xlink" xml:space="preserve" xmlns:serif="http://www.serif.com/" style="fill-rule:evenodd;clip-rule:evenodd;stroke-linejoin:round;stroke-miterlimit:2;">
    <rect id="Tabs" x="0" y="0" width="422.917" height="172.917" style="fill:none;"/>
    <clipPath id="_clip1">
        <rect x="0" y="0" width="422.917" height="172.917"/>
    </clipPath>
    <g clip-path="url(#_clip1)">
        <g id="Models">
            <path d="M172.925,157.705l0,15.22l-138.347,0c0,-19.089 -15.498,-34.587 -34.587,-34.587l0,-138.347l172.934,0l0,15.22l178.753,0l71.247,71.247l-71.247,71.247l-178.753,0Z"/>
            <g>
                <g>
                    <path d="M91.789,91.181c0.154,-2.754 1.501,-5.187 3.54,-6.906c1.996,-1.69 4.677,-2.724 7.62,-2.724c2.928,0 5.609,1.033 7.605,2.724c2.04,1.719 3.38,4.152 3.54,6.906c0.154,2.826 -0.983,5.463 -2.972,7.416c-2.04,1.981 -4.924,3.234 -8.173,3.234c-3.249,0 -6.148,-1.244 -8.173,-3.234c-1.996,-1.952 -3.132,-4.575 -2.972,-7.401l-0.015,-0.015Z" fill="black"/>
                    <path d="M65.659,98.614c0.025,1.404 0.472,4.135 1.144,6.259c1.411,4.514 3.812,8.687 7.132,12.348c3.414,3.775 7.625,6.809 12.481,8.972c5.102,2.257 10.641,3.414 16.388,3.414c5.747,-0.008 11.286,-1.184 16.388,-3.471c4.856,-2.181 9.066,-5.216 12.481,-9.01c3.338,-3.699 5.728,-7.872 7.132,-12.386c0.711,-2.276 1.161,-4.59 1.341,-6.904c0.176,-2.276 0.102,-4.571 -0.222,-6.866c-0.634,-4.457 -2.181,-8.649 -4.552,-12.443c-2.162,-3.509 -4.969,-6.563 -8.308,-9.142l0.008,-0.006l-33.573,-25.796c-0.03,-0.023 -0.055,-0.047 -0.087,-0.068c-2.2,-1.692 -5.918,-1.686 -8.327,0.009c-2.447,1.715 -2.731,4.552 -0.55,6.335l-0.009,0.009l14.017,11.399l-42.677,0.046l-0.057,0c-3.528,0.004 -6.923,2.314 -7.587,5.254c-0.69,2.978 1.707,5.463 5.387,5.463l-0.006,0.013l21.623,-0.042l-38.694,29.589c-0.049,0.036 -0.102,0.074 -0.148,0.11c-3.642,2.788 -4.818,7.435 -2.523,10.356c2.333,2.978 7.284,2.997 10.963,0.017l21.054,-17.26c0,0 -0.307,2.333 -0.283,3.718l0.064,0.082Zm54.247,7.796c-4.344,4.419 -10.432,6.942 -16.995,6.942c-6.582,0.011 -12.67,-2.466 -17.014,-6.885c-2.124,-2.162 -3.68,-4.628 -4.647,-7.265c-0.943,-2.599 -1.309,-5.349 -1.066,-8.118c0.23,-2.712 1.038,-5.311 2.333,-7.644c1.267,-2.295 3.016,-4.381 5.159,-6.145c4.23,-3.433 9.598,-5.311 15.212,-5.311c5.633,-0.008 11.001,1.838 15.231,5.273c2.143,1.753 3.888,3.831 5.159,6.127c1.295,2.333 2.105,4.913 2.333,7.644c0.239,2.769 -0.127,5.52 -1.07,8.118c-0.964,2.655 -2.523,5.121 -4.647,7.284l0.011,-0.019Z" fill="black"/>
                </g>
            </g>
            <path d="M212.558,109.022l-8.957,0l-1.66,-38.364l-7.297,38.364l-8.518,0l9.583,-45.911l13.466,0l1.409,32.163l15.659,-32.163l13.623,0l-9.614,45.911l-8.612,0l9.051,-38.082l-18.133,38.082Z" fill="black"/>
            <path d="M240.838,95.212c0,-6.159 1.738,-11.071 5.214,-14.735c3.476,-3.664 8.043,-5.496 13.701,-5.496c4.906,0 8.738,1.352 11.493,4.056c2.756,2.704 4.134,6.342 4.134,10.914c0,5.387 -1.722,10.042 -5.167,13.968c-3.445,3.925 -8.059,5.888 -13.842,5.888c-3.132,0 -5.909,-0.626 -8.33,-1.879c-2.422,-1.253 -4.228,-3.027 -5.418,-5.324c-1.19,-2.297 -1.785,-4.76 -1.785,-7.391Zm25.618,-6.42c0,-2.13 -0.621,-3.836 -1.863,-5.12c-1.242,-1.284 -2.845,-1.926 -4.807,-1.926c-1.942,0 -3.664,0.6 -5.167,1.801c-1.503,1.2 -2.672,2.944 -3.508,5.23c-0.835,2.286 -1.253,4.39 -1.253,6.31c0,2.38 0.647,4.27 1.942,5.668c1.294,1.399 2.923,2.098 4.885,2.098c2.464,0 4.531,-1.054 6.201,-3.163c2.38,-2.986 3.57,-6.618 3.57,-10.898Z" fill="black"/>
            <path d="M309.423,109.022l-8.518,0l0.752,-3.601c-1.628,1.566 -3.231,2.688 -4.807,3.367c-1.576,0.679 -3.356,1.018 -5.34,1.018c-3.445,0 -6.237,-1.174 -8.377,-3.523c-2.14,-2.349 -3.21,-5.82 -3.21,-10.413c0,-5.324 1.503,-10.136 4.51,-14.437c3.006,-4.301 6.984,-6.451 11.932,-6.451c4.468,0 7.819,1.775 10.053,5.324l3.601,-17.193l8.988,0l-9.583,45.911Zm-20.763,-13.529c0,2.38 0.6,4.238 1.801,5.574c1.2,1.336 2.678,2.004 4.431,2.004c1.628,0 3.147,-0.558 4.557,-1.675c1.409,-1.117 2.537,-2.824 3.382,-5.12c0.846,-2.297 1.268,-4.499 1.268,-6.608c0,-2.401 -0.647,-4.343 -1.942,-5.825c-1.294,-1.482 -2.787,-2.224 -4.478,-2.224c-2.631,0 -4.792,1.461 -6.483,4.384c-1.691,2.923 -2.537,6.086 -2.537,9.489Z" fill="black"/>
            <path d="M350.26,95.18l-22.548,0c-0.021,0.355 -0.031,0.626 -0.031,0.814c0,2.213 0.632,3.998 1.895,5.355c1.263,1.357 2.803,2.036 4.619,2.036c2.986,0 5.313,-1.545 6.984,-4.635l8.049,1.347c-1.566,3.236 -3.659,5.663 -6.279,7.281c-2.62,1.618 -5.559,2.427 -8.816,2.427c-4.468,0 -8.101,-1.414 -10.898,-4.243c-2.798,-2.829 -4.197,-6.571 -4.197,-11.227c0,-4.551 1.263,-8.602 3.789,-12.151c3.445,-4.802 8.362,-7.203 14.75,-7.203c4.071,0 7.307,1.258 9.708,3.774c2.401,2.516 3.601,6.039 3.601,10.57c0,2.171 -0.209,4.123 -0.626,5.856Zm-7.579,-5.481c0.021,-0.397 0.031,-0.699 0.031,-0.908c0,-2.464 -0.553,-4.311 -1.66,-5.543c-1.107,-1.232 -2.589,-1.848 -4.447,-1.848c-1.858,0 -3.523,0.699 -4.995,2.098c-1.472,1.399 -2.469,3.466 -2.991,6.201l14.061,0Z" fill="black"/>
            <path d="M353.486,109.022l9.614,-45.911l8.957,0l-9.583,45.911l-8.988,0Z" fill="black"/>
        </g>
    </g>
</svg>
