<?xml version="1.0" encoding="UTF-8" standalone="no"?>
<!DOCTYPE svg PUBLIC "-//W3C//DTD SVG 1.1//EN" "http://www.w3.org/Graphics/SVG/1.1/DTD/svg11.dtd">
<svg width="100%" height="100%" viewBox="0 0 423 173" version="1.1" xmlns="http://www.w3.org/2000/svg" xmlns:xlink="http://www.w3.org/1999/xlink" xml:space="preserve" xmlns:serif="http://www.serif.com/" style="fill-rule:evenodd;clip-rule:evenodd;stroke-linejoin:round;stroke-miterlimit:2;">
    <rect id="Tabs" x="0" y="0" width="422.917" height="172.917" style="fill:none;"/>
    <clipPath id="_clip1">
        <rect x="0" y="0" width="422.917" height="172.917"/>
    </clipPath>
    <g clip-path="url(#_clip1)">
        <g id="About">
            <path d="M172.925,157.705l0,15.22l-138.347,0c0,-19.089 -15.498,-34.587 -34.587,-34.587l0,-138.347l172.934,-0l0,15.22l178.753,0l71.247,71.247l-71.247,71.247l-178.753,0Z" />
            <path d="M86.458,32.94c29.538,0 53.518,23.981 53.518,53.518c0,29.538 -23.981,53.518 -53.518,53.518c-29.538,0 -53.518,-23.981 -53.518,-53.518c0,-29.538 23.981,-53.518 53.518,-53.518Zm0,10.704c-23.63,0 -42.815,19.185 -42.815,42.815c0,23.63 19.185,42.815 42.815,42.815c23.63,0 42.815,-19.185 42.815,-42.815c0,-23.63 -19.185,-42.815 -42.815,-42.815Zm0.638,23.304c-1.202,0 -2.241,-0.426 -3.117,-1.277c-0.876,-0.851 -1.314,-1.878 -1.314,-3.08c0,-1.202 0.438,-2.228 1.314,-3.08c0.876,-0.851 1.915,-1.277 3.117,-1.277c1.202,0 2.235,0.426 3.098,1.277c0.864,0.851 1.296,1.878 1.296,3.08c0,1.202 -0.432,2.228 -1.296,3.08c-0.864,0.851 -1.897,1.277 -3.098,1.277Zm1.69,30.496c0,1.502 0.044,3.749 0.131,6.741c0.088,2.992 0.131,5.239 0.131,6.741c0,1.102 -0.338,2.003 -1.014,2.704c-0.676,0.701 -1.565,1.052 -2.667,1.052c-1.077,0 -1.959,-0.351 -2.648,-1.052c-0.689,-0.701 -1.033,-1.602 -1.033,-2.704c0,-1.502 -0.044,-3.749 -0.131,-6.741c-0.088,-2.992 -0.131,-5.239 -0.131,-6.741c0,-2.354 0.125,-5.289 0.376,-8.807c0.25,-3.518 0.376,-6.454 0.376,-8.807c0,-1.127 0.344,-2.041 1.033,-2.742c0.689,-0.701 1.571,-1.052 2.648,-1.052c1.077,0 1.959,0.351 2.648,1.052c0.689,0.701 1.033,1.615 1.033,2.742c0,2.354 -0.125,5.289 -0.376,8.807c-0.25,3.518 -0.376,6.454 -0.376,8.807Z" fill="black"/>
            <path d="M217.694,98.876l-18.195,0l-5.512,10.147l-9.708,0l25.962,-45.911l10.491,0l7.454,45.911l-8.957,0l-1.535,-10.147Zm-1.159,-7.641l-2.662,-18.477l-11.086,18.477l13.748,0Z" style="fill-rule:nonzero;" fill="black"/>
            <path d="M233.635,109.022l9.583,-45.911l9.019,0l-3.226,15.345c1.649,-1.253 3.189,-2.145 4.619,-2.678c1.43,-0.532 2.991,-0.799 4.682,-0.799c3.508,0 6.316,1.174 8.424,3.523c2.109,2.349 3.163,5.768 3.163,10.256c0,3.027 -0.496,5.966 -1.488,8.816c-0.992,2.85 -2.317,5.167 -3.977,6.952c-1.66,1.785 -3.403,3.111 -5.23,3.977c-1.827,0.866 -3.742,1.3 -5.747,1.3c-4.76,0 -8.257,-2.088 -10.491,-6.263l-1.159,5.481l-8.174,0Zm12.12,-13.56c0,2.234 0.632,4.05 1.895,5.449c1.263,1.399 2.751,2.098 4.463,2.098c1.503,0 2.939,-0.543 4.306,-1.628c1.368,-1.086 2.505,-2.819 3.414,-5.199c0.908,-2.38 1.362,-4.781 1.362,-7.203c0,-2.359 -0.611,-4.212 -1.832,-5.559c-1.221,-1.347 -2.699,-2.02 -4.431,-2.02c-2.255,0 -4.197,1.044 -5.825,3.132c-2.234,2.86 -3.351,6.504 -3.351,10.93Z" fill="black"/>
            <path d="M274.379,95.212c0,-6.159 1.738,-11.071 5.214,-14.735c3.476,-3.664 8.043,-5.496 13.701,-5.496c4.906,0 8.738,1.352 11.493,4.056c2.756,2.704 4.134,6.342 4.134,10.914c0,5.387 -1.722,10.042 -5.167,13.968c-3.445,3.925 -8.059,5.888 -13.842,5.888c-3.132,0 -5.909,-0.626 -8.33,-1.879c-2.422,-1.253 -4.228,-3.027 -5.418,-5.324c-1.19,-2.297 -1.785,-4.76 -1.785,-7.391Zm25.618,-6.42c0,-2.13 -0.621,-3.836 -1.863,-5.12c-1.242,-1.284 -2.845,-1.926 -4.807,-1.926c-1.942,0 -3.664,0.6 -5.167,1.801c-1.503,1.2 -2.672,2.944 -3.508,5.23c-0.835,2.286 -1.253,4.39 -1.253,6.31c0,2.38 0.647,4.27 1.942,5.668c1.294,1.399 2.923,2.098 4.885,2.098c2.464,0 4.531,-1.054 6.201,-3.163c2.38,-2.986 3.57,-6.618 3.57,-10.898Z" fill="black"/>
            <path d="M319.131,75.763l8.988,0l-4.103,19.699c-0.501,2.359 -0.752,3.831 -0.752,4.416c0,0.96 0.355,1.785 1.065,2.474c0.71,0.689 1.618,1.033 2.725,1.033c0.793,0 1.576,-0.151 2.349,-0.454c0.772,-0.303 1.566,-0.762 2.38,-1.378c0.814,-0.616 1.545,-1.321 2.192,-2.114c0.647,-0.793 1.253,-1.837 1.816,-3.132c0.397,-0.96 0.825,-2.526 1.284,-4.698l3.32,-15.847l8.988,0l-6.952,33.259l-8.393,0l0.94,-4.51c-3.675,3.528 -7.673,5.293 -11.995,5.293c-2.735,0 -4.885,-0.783 -6.451,-2.349c-1.566,-1.566 -2.349,-3.664 -2.349,-6.295c0,-1.148 0.355,-3.434 1.065,-6.858l3.883,-18.54Z" style="fill-rule:nonzero;" fill="black"/>
            <path d="M353.674,82.434l1.378,-6.671l4.384,0l1.096,-5.324l10.303,-6.201l-2.411,11.525l5.481,0l-1.378,6.671l-5.512,0l-2.913,13.936c-0.522,2.526 -0.783,3.967 -0.783,4.322c0,0.689 0.219,1.227 0.658,1.613c0.438,0.386 1.232,0.579 2.38,0.579c0.397,0 1.388,-0.073 2.975,-0.219l-1.409,6.671c-1.545,0.313 -3.132,0.47 -4.76,0.47c-3.173,0 -5.481,-0.611 -6.921,-1.832c-1.441,-1.221 -2.161,-2.918 -2.161,-5.089c0,-1.023 0.386,-3.382 1.159,-7.078l2.787,-13.372l-4.353,0Z" style="fill-rule:nonzero;" fill="black"/>
        </g>
    </g>
</svg>
